TITLE ""
FILE "LR_black_phrase_A04.mp3" MP3
  TRACK 01 AUDIO
    TITLE "LR_black_phrase_A04_001"
    INDEX 01 00:00:00
  TRACK 02 AUDIO
    TITLE "LR_black_phrase_A04_002"
    INDEX 01 00:00:12
  TRACK 03 AUDIO
    TITLE "LR_black_phrase_A04_003"
    INDEX 01 00:01:20
  TRACK 04 AUDIO
    TITLE "LR_black_phrase_A04_004"
    INDEX 01 00:01:59
  TRACK 05 AUDIO
    TITLE "LR_black_phrase_A04_005"
    INDEX 01 00:03:07
  TRACK 06 AUDIO
    TITLE "LR_black_phrase_A04_006"
    INDEX 01 00:04:06
  TRACK 07 AUDIO
    TITLE "LR_black_phrase_A04_007"
    INDEX 01 00:06:32
  TRACK 08 AUDIO
    TITLE "LR_black_phrase_A04_008"
    INDEX 01 00:06:72
  TRACK 09 AUDIO
    TITLE "LR_black_phrase_A04_009"
    INDEX 01 00:09:46
  TRACK 10 AUDIO
    TITLE "LR_black_phrase_A04_010"
    INDEX 01 00:10:03
  TRACK 11 AUDIO
    TITLE "LR_black_phrase_A04_011"
    INDEX 01 00:12:51
  TRACK 12 AUDIO
    TITLE "LR_black_phrase_A04_012"
    INDEX 01 00:13:56
  TRACK 13 AUDIO
    TITLE "LR_black_phrase_A04_013"
    INDEX 01 00:15:02
  TRACK 14 AUDIO
    TITLE "LR_black_phrase_A04_014"
    INDEX 01 00:15:39
  TRACK 15 AUDIO
    TITLE "LR_black_phrase_A04_015"
    INDEX 01 00:18:16
  TRACK 16 AUDIO
    TITLE "LR_black_phrase_A04_016"
    INDEX 01 00:19:15
  TRACK 17 AUDIO
    TITLE "LR_black_phrase_A04_017"
    INDEX 01 00:21:42
  TRACK 18 AUDIO
    TITLE "LR_black_phrase_A04_018"
    INDEX 01 00:22:04
  TRACK 19 AUDIO
    TITLE "LR_black_phrase_A04_019"
    INDEX 01 00:24:34
  TRACK 20 AUDIO
    TITLE "LR_black_phrase_A04_020"
    INDEX 01 00:24:64
  TRACK 21 AUDIO
    TITLE "LR_black_phrase_A04_021"
    INDEX 01 00:27:19
  TRACK 22 AUDIO
    TITLE "LR_black_phrase_A04_022"
    INDEX 01 00:28:24
  TRACK 23 AUDIO
    TITLE "LR_black_phrase_A04_023"
    INDEX 01 00:29:45
  TRACK 24 AUDIO
    TITLE "LR_black_phrase_A04_024"
    INDEX 01 00:30:09
  TRACK 25 AUDIO
    TITLE "LR_black_phrase_A04_025"
    INDEX 01 00:34:05
  TRACK 26 AUDIO
    TITLE "LR_black_phrase_A04_026"
    INDEX 01 00:34:74
  TRACK 27 AUDIO
    TITLE "LR_black_phrase_A04_027"
    INDEX 01 00:37:58
  TRACK 28 AUDIO
    TITLE "LR_black_phrase_A04_028"
    INDEX 01 00:38:23
  TRACK 29 AUDIO
    TITLE "LR_black_phrase_A04_029"
    INDEX 01 00:41:03
  TRACK 30 AUDIO
    TITLE "LR_black_phrase_A04_030"
    INDEX 01 00:41:33
  TRACK 31 AUDIO
    TITLE "LR_black_phrase_A04_031"
    INDEX 01 00:44:13
  TRACK 32 AUDIO
    TITLE "LR_black_phrase_A04_032"
    INDEX 01 00:45:07
  TRACK 33 AUDIO
    TITLE "LR_black_phrase_A04_033"
    INDEX 01 00:46:52
  TRACK 34 AUDIO
    TITLE "LR_black_phrase_A04_034"
    INDEX 01 00:47:12
  TRACK 35 AUDIO
    TITLE "LR_black_phrase_A04_035"
    INDEX 01 00:48:74
  TRACK 36 AUDIO
    TITLE "LR_black_phrase_A04_036"
    INDEX 01 00:49:71
  TRACK 37 AUDIO
    TITLE "LR_black_phrase_A04_037"
    INDEX 01 00:53:09
  TRACK 38 AUDIO
    TITLE "LR_black_phrase_A04_038"
    INDEX 01 00:53:44
  TRACK 39 AUDIO
    TITLE "LR_black_phrase_A04_039"
    INDEX 01 00:56:19
  TRACK 40 AUDIO
    TITLE "LR_black_phrase_A04_040"
    INDEX 01 00:56:40
  TRACK 41 AUDIO
    TITLE "LR_black_phrase_A04_041"
    INDEX 01 00:59:15
  TRACK 42 AUDIO
    TITLE "LR_black_phrase_A04_042"
    INDEX 01 01:00:09
  TRACK 43 AUDIO
    TITLE "LR_black_phrase_A04_043"
    INDEX 01 01:01:26
  TRACK 44 AUDIO
    TITLE "LR_black_phrase_A04_044"
    INDEX 01 01:01:65
  TRACK 45 AUDIO
    TITLE "LR_black_phrase_A04_045"
    INDEX 01 01:03:32
  TRACK 46 AUDIO
    TITLE "LR_black_phrase_A04_046"
    INDEX 01 01:04:32
  TRACK 47 AUDIO
    TITLE "LR_black_phrase_A04_047"
    INDEX 01 01:06:70
  TRACK 48 AUDIO
    TITLE "LR_black_phrase_A04_048"
    INDEX 01 01:07:30
  TRACK 49 AUDIO
    TITLE "LR_black_phrase_A04_049"
    INDEX 01 01:09:74
  TRACK 50 AUDIO
    TITLE "LR_black_phrase_A04_050"
    INDEX 01 01:10:23
  TRACK 51 AUDIO
    TITLE "LR_black_phrase_A04_051"
    INDEX 01 01:12:67
  TRACK 52 AUDIO
    TITLE "LR_black_phrase_A04_052"
    INDEX 01 01:13:66
  TRACK 53 AUDIO
    TITLE "LR_black_phrase_A04_053"
    INDEX 01 01:15:12
  TRACK 54 AUDIO
    TITLE "LR_black_phrase_A04_054"
    INDEX 01 01:15:51
  TRACK 55 AUDIO
    TITLE "LR_black_phrase_A04_055"
    INDEX 01 01:16:72
  TRACK 56 AUDIO
    TITLE "LR_black_phrase_A04_056"
    INDEX 01 01:17:72
  TRACK 57 AUDIO
    TITLE "LR_black_phrase_A04_057"
    INDEX 01 01:19:53
  TRACK 58 AUDIO
    TITLE "LR_black_phrase_A04_058"
    INDEX 01 01:20:13
  TRACK 59 AUDIO
    TITLE "LR_black_phrase_A04_059"
    INDEX 01 01:22:12
  TRACK 60 AUDIO
    TITLE "LR_black_phrase_A04_060"
    INDEX 01 01:22:32
  TRACK 61 AUDIO
    TITLE "LR_black_phrase_A04_061"
    INDEX 01 01:24:33
  TRACK 62 AUDIO
    TITLE "LR_black_phrase_A04_062"
    INDEX 01 01:25:32
  TRACK 63 AUDIO
    TITLE "LR_black_phrase_A04_063"
    INDEX 01 01:26:51
  TRACK 64 AUDIO
    TITLE "LR_black_phrase_A04_064"
    INDEX 01 01:27:17
  TRACK 65 AUDIO
    TITLE "LR_black_phrase_A04_065"
    INDEX 01 01:29:45
  TRACK 66 AUDIO
    TITLE "LR_black_phrase_A04_066"
    INDEX 01 01:30:45
  TRACK 67 AUDIO
    TITLE "LR_black_phrase_A04_067"
    INDEX 01 01:32:48
  TRACK 68 AUDIO
    TITLE "LR_black_phrase_A04_068"
    INDEX 01 01:33:14
  TRACK 69 AUDIO
    TITLE "LR_black_phrase_A04_069"
    INDEX 01 01:36:08
  TRACK 70 AUDIO
    TITLE "LR_black_phrase_A04_070"
    INDEX 01 01:36:40
  TRACK 71 AUDIO
    TITLE "LR_black_phrase_A04_071"
    INDEX 01 01:39:34
  TRACK 72 AUDIO
    TITLE "LR_black_phrase_A04_072"
    INDEX 01 01:40:39
  TRACK 73 AUDIO
    TITLE "LR_black_phrase_A04_073"
    INDEX 01 01:41:58
  TRACK 74 AUDIO
    TITLE "LR_black_phrase_A04_074"
    INDEX 01 01:42:27
  TRACK 75 AUDIO
    TITLE "LR_black_phrase_A04_075"
    INDEX 01 01:43:46
  TRACK 76 AUDIO
    TITLE "LR_black_phrase_A04_076"
    INDEX 01 01:44:43
  TRACK 77 AUDIO
    TITLE "LR_black_phrase_A04_077"
    INDEX 01 01:47:24
  TRACK 78 AUDIO
    TITLE "LR_black_phrase_A04_078"
    INDEX 01 01:47:65
  TRACK 79 AUDIO
    TITLE "LR_black_phrase_A04_079"
    INDEX 01 01:50:30
  TRACK 80 AUDIO
    TITLE "LR_black_phrase_A04_080"
    INDEX 01 01:50:59
  TRACK 81 AUDIO
    TITLE "LR_black_phrase_A04_081"
    INDEX 01 01:53:24
  TRACK 82 AUDIO
    TITLE "LR_black_phrase_A04_082"
    INDEX 01 01:54:30
  TRACK 83 AUDIO
    TITLE "LR_black_phrase_A04_083"
    INDEX 01 01:55:57
  TRACK 84 AUDIO
    TITLE "LR_black_phrase_A04_084"
    INDEX 01 01:56:19
  TRACK 85 AUDIO
    TITLE "LR_black_phrase_A04_085"
    INDEX 01 01:58:65
  TRACK 86 AUDIO
    TITLE "LR_black_phrase_A04_086"
    INDEX 01 01:59:66
  TRACK 87 AUDIO
    TITLE "LR_black_phrase_A04_087"
    INDEX 01 02:01:73
  TRACK 88 AUDIO
    TITLE "LR_black_phrase_A04_088"
    INDEX 01 02:02:33
  TRACK 89 AUDIO
    TITLE "LR_black_phrase_A04_089"
    INDEX 01 02:04:32
  TRACK 90 AUDIO
    TITLE "LR_black_phrase_A04_090"
    INDEX 01 02:04:58
  TRACK 91 AUDIO
    TITLE "LR_black_phrase_A04_091"
    INDEX 01 02:06:56
  TRACK 92 AUDIO
    TITLE "LR_black_phrase_A04_092"
    INDEX 01 02:07:60
  TRACK 93 AUDIO
    TITLE "LR_black_phrase_A04_093"
    INDEX 01 02:08:61
  TRACK 94 AUDIO
    TITLE "LR_black_phrase_A04_094"
    INDEX 01 02:09:23
  TRACK 95 AUDIO
    TITLE "LR_black_phrase_A04_095"
    INDEX 01 02:11:24
  TRACK 96 AUDIO
    TITLE "LR_black_phrase_A04_096"
    INDEX 01 02:12:22
  TRACK 97 AUDIO
    TITLE "LR_black_phrase_A04_097"
    INDEX 01 02:14:68
  TRACK 98 AUDIO
    TITLE "LR_black_phrase_A04_098"
    INDEX 01 02:15:28
  TRACK 99 AUDIO
    TITLE "LR_black_phrase_A04_099"
    INDEX 01 02:18:48
  TRACK 100 AUDIO
    TITLE "LR_black_phrase_A04_100"
    INDEX 01 02:18:67
  TRACK 101 AUDIO
    TITLE "LR_black_phrase_A04_101"
    INDEX 01 02:22:12
  TRACK 102 AUDIO
    TITLE "LR_black_phrase_A04_102"
    INDEX 01 02:23:12
  TRACK 103 AUDIO
    TITLE "LR_black_phrase_A04_103"
    INDEX 01 02:24:33
  TRACK 104 AUDIO
    TITLE "LR_black_phrase_A04_104"
    INDEX 01 02:24:70
  TRACK 105 AUDIO
    TITLE "LR_black_phrase_A04_105"
    INDEX 01 02:27:23
  TRACK 106 AUDIO
    TITLE "LR_black_phrase_A04_106"
    INDEX 01 02:28:23
  TRACK 107 AUDIO
    TITLE "LR_black_phrase_A04_107"
    INDEX 01 02:31:05
  TRACK 108 AUDIO
    TITLE "LR_black_phrase_A04_108"
    INDEX 01 02:31:39
  TRACK 109 AUDIO
    TITLE "LR_black_phrase_A04_109"
    INDEX 01 02:34:06
  TRACK 110 AUDIO
    TITLE "LR_black_phrase_A04_110"
    INDEX 01 02:34:27
  TRACK 111 AUDIO
    TITLE "LR_black_phrase_A04_111"
    INDEX 01 02:36:67
  TRACK 112 AUDIO
    TITLE "LR_black_phrase_A04_112"
    INDEX 01 02:37:65
  TRACK 113 AUDIO
    TITLE "LR_black_phrase_A04_113"
    INDEX 01 02:39:09
  TRACK 114 AUDIO
    TITLE "LR_black_phrase_A04_114"
    INDEX 01 02:39:44
  TRACK 115 AUDIO
    TITLE "LR_black_phrase_A04_115"
    INDEX 01 02:42:07
  TRACK 116 AUDIO
    TITLE "LR_black_phrase_A04_116"
    INDEX 01 02:43:05
  TRACK 117 AUDIO
    TITLE "LR_black_phrase_A04_117"
    INDEX 01 02:44:43
  TRACK 118 AUDIO
    TITLE "LR_black_phrase_A04_118"
    INDEX 01 02:45:04
  TRACK 119 AUDIO
    TITLE "LR_black_phrase_A04_119"
    INDEX 01 02:46:72
  TRACK 120 AUDIO
    TITLE "LR_black_phrase_A04_120"
    INDEX 01 02:47:16
  TRACK 121 AUDIO
    TITLE "LR_black_phrase_A04_121"
    INDEX 01 02:49:09
  TRACK 122 AUDIO
    TITLE "LR_black_phrase_A04_122"
    INDEX 01 02:50:09
  TRACK 123 AUDIO
    TITLE "LR_black_phrase_A04_123"
    INDEX 01 02:51:26
  TRACK 124 AUDIO
    TITLE "LR_black_phrase_A04_124"
    INDEX 01 02:51:65
  TRACK 125 AUDIO
    TITLE "LR_black_phrase_A04_125"
    INDEX 01 02:53:62
  TRACK 126 AUDIO
    TITLE "LR_black_phrase_A04_126"
    INDEX 01 02:54:61
  TRACK 127 AUDIO
    TITLE "LR_black_phrase_A04_127"
    INDEX 01 02:57:07
  TRACK 128 AUDIO
    TITLE "LR_black_phrase_A04_128"
    INDEX 01 02:57:44
  TRACK 129 AUDIO
    TITLE "LR_black_phrase_A04_129"
    INDEX 01 03:00:11
  TRACK 130 AUDIO
    TITLE "LR_black_phrase_A04_130"
    INDEX 01 03:00:42
  TRACK 131 AUDIO
    TITLE "LR_black_phrase_A04_131"
    INDEX 01 03:03:09
  TRACK 132 AUDIO
    TITLE "LR_black_phrase_A04_132"
    INDEX 01 03:04:15
  TRACK 133 AUDIO
    TITLE "LR_black_phrase_A04_133"
    INDEX 01 03:05:28
  TRACK 134 AUDIO
    TITLE "LR_black_phrase_A04_134"
    INDEX 01 03:05:67
  TRACK 135 AUDIO
    TITLE "LR_black_phrase_A04_135"
    INDEX 01 03:08:20
  TRACK 136 AUDIO
    TITLE "LR_black_phrase_A04_136"
    INDEX 01 03:09:20
  TRACK 137 AUDIO
    TITLE "LR_black_phrase_A04_137"
    INDEX 01 03:12:01
  TRACK 138 AUDIO
    TITLE "LR_black_phrase_A04_138"
    INDEX 01 03:12:40
  TRACK 139 AUDIO
    TITLE "LR_black_phrase_A04_139"
    INDEX 01 03:14:68
  TRACK 140 AUDIO
    TITLE "LR_black_phrase_A04_140"
    INDEX 01 03:15:22
  TRACK 141 AUDIO
    TITLE "LR_black_phrase_A04_141"
    INDEX 01 03:17:49
  TRACK 142 AUDIO
    TITLE "LR_black_phrase_A04_142"
    INDEX 01 03:18:54
  TRACK 143 AUDIO
    TITLE "LR_black_phrase_A04_143"
    INDEX 01 03:20:14
  TRACK 144 AUDIO
    TITLE "LR_black_phrase_A04_144"
    INDEX 01 03:20:53
  TRACK 145 AUDIO
    TITLE "LR_black_phrase_A04_145"
    INDEX 01 03:22:69
  TRACK 146 AUDIO
    TITLE "LR_black_phrase_A04_146"
    INDEX 01 03:23:71
  TRACK 147 AUDIO
    TITLE "LR_black_phrase_A04_147"
    INDEX 01 03:26:61
  TRACK 148 AUDIO
    TITLE "LR_black_phrase_A04_148"
    INDEX 01 03:27:28
  TRACK 149 AUDIO
    TITLE "LR_black_phrase_A04_149"
    INDEX 01 03:29:66
  TRACK 150 AUDIO
    TITLE "LR_black_phrase_A04_150"
    INDEX 01 03:30:20
  TRACK 151 AUDIO
    TITLE "LR_black_phrase_A04_151"
    INDEX 01 03:32:58
  TRACK 152 AUDIO
    TITLE "LR_black_phrase_A04_152"
    INDEX 01 03:33:57
  TRACK 153 AUDIO
    TITLE "LR_black_phrase_A04_153"
    INDEX 01 03:34:69
  TRACK 154 AUDIO
    TITLE "LR_black_phrase_A04_154"
    INDEX 01 03:35:29
  TRACK 155 AUDIO
    TITLE "LR_black_phrase_A04_155"
    INDEX 01 03:38:00
  TRACK 156 AUDIO
    TITLE "LR_black_phrase_A04_156"
    INDEX 01 03:38:68
  TRACK 157 AUDIO
    TITLE "LR_black_phrase_A04_157"
    INDEX 01 03:42:51
  TRACK 158 AUDIO
    TITLE "LR_black_phrase_A04_158"
    INDEX 01 03:43:11
  TRACK 159 AUDIO
    TITLE "LR_black_phrase_A04_159"
    INDEX 01 03:46:37
  TRACK 160 AUDIO
    TITLE "LR_black_phrase_A04_160"
    INDEX 01 03:46:56
  TRACK 161 AUDIO
    TITLE "LR_black_phrase_A04_161"
    INDEX 01 03:50:07
  TRACK 162 AUDIO
    TITLE "LR_black_phrase_A04_162"
    INDEX 01 03:51:04
  TRACK 163 AUDIO
    TITLE "LR_black_phrase_A04_163"
    INDEX 01 03:52:35
  TRACK 164 AUDIO
    TITLE "LR_black_phrase_A04_164"
    INDEX 01 03:52:74
  TRACK 165 AUDIO
    TITLE "LR_black_phrase_A04_165"
    INDEX 01 03:54:44
  TRACK 166 AUDIO
    TITLE "LR_black_phrase_A04_166"
    INDEX 01 03:55:41
  TRACK 167 AUDIO
    TITLE "LR_black_phrase_A04_167"
    INDEX 01 03:59:02
  TRACK 168 AUDIO
    TITLE "LR_black_phrase_A04_168"
    INDEX 01 03:59:35
  TRACK 169 AUDIO
    TITLE "LR_black_phrase_A04_169"
    INDEX 01 04:02:34
  TRACK 170 AUDIO
    TITLE "LR_black_phrase_A04_170"
    INDEX 01 04:02:51
  TRACK 171 AUDIO
    TITLE "LR_black_phrase_A04_171"
    INDEX 01 04:05:52
  TRACK 172 AUDIO
    TITLE "LR_black_phrase_A04_172"
    INDEX 01 04:06:45
  TRACK 173 AUDIO
    TITLE "LR_black_phrase_A04_173"
    INDEX 01 04:07:70
  TRACK 174 AUDIO
    TITLE "LR_black_phrase_A04_174"
    INDEX 01 04:08:32
  TRACK 175 AUDIO
    TITLE "LR_black_phrase_A04_175"
    INDEX 01 04:11:66
  TRACK 176 AUDIO
    TITLE "LR_black_phrase_A04_176"
    INDEX 01 04:12:63
  TRACK 177 AUDIO
    TITLE "LR_black_phrase_A04_177"
    INDEX 01 04:15:07
  TRACK 178 AUDIO
    TITLE "LR_black_phrase_A04_178"
    INDEX 01 04:15:42
  TRACK 179 AUDIO
    TITLE "LR_black_phrase_A04_179"
    INDEX 01 04:17:61
  TRACK 180 AUDIO
    TITLE "LR_black_phrase_A04_180"
    INDEX 01 04:18:05
  TRACK 181 AUDIO
    TITLE "LR_black_phrase_A04_181"
    INDEX 01 04:20:24
  TRACK 182 AUDIO
    TITLE "LR_black_phrase_A04_182"
    INDEX 01 04:21:23
  TRACK 183 AUDIO
    TITLE "LR_black_phrase_A04_183"
    INDEX 01 04:22:38
  TRACK 184 AUDIO
    TITLE "LR_black_phrase_A04_184"
    INDEX 01 04:23:04
  TRACK 185 AUDIO
    TITLE "LR_black_phrase_A04_185"
    INDEX 01 04:24:55
  TRACK 186 AUDIO
    TITLE "LR_black_phrase_A04_186"
    INDEX 01 04:25:54
  TRACK 187 AUDIO
    TITLE "LR_black_phrase_A04_187"
    INDEX 01 04:28:62
  TRACK 188 AUDIO
    TITLE "LR_black_phrase_A04_188"
    INDEX 01 04:29:29
  TRACK 189 AUDIO
    TITLE "LR_black_phrase_A04_189"
    INDEX 01 04:32:03
  TRACK 190 AUDIO
    TITLE "LR_black_phrase_A04_190"
    INDEX 01 04:32:33
  TRACK 191 AUDIO
    TITLE "LR_black_phrase_A04_191"
    INDEX 01 04:35:10
  TRACK 192 AUDIO
    TITLE "LR_black_phrase_A04_192"
    INDEX 01 04:36:13
  TRACK 193 AUDIO
    TITLE "LR_black_phrase_A04_193"
    INDEX 01 04:37:34
  TRACK 194 AUDIO
    TITLE "LR_black_phrase_A04_194"
    INDEX 01 04:37:73
  TRACK 195 AUDIO
    TITLE "LR_black_phrase_A04_195"
    INDEX 01 04:40:60
  TRACK 196 AUDIO
    TITLE "LR_black_phrase_A04_196"
    INDEX 01 04:41:59
  TRACK 197 AUDIO
    TITLE "LR_black_phrase_A04_197"
    INDEX 01 04:44:38
  TRACK 198 AUDIO
    TITLE "LR_black_phrase_A04_198"
    INDEX 01 04:45:02
  TRACK 199 AUDIO
    TITLE "LR_black_phrase_A04_199"
    INDEX 01 04:48:14
  TRACK 200 AUDIO
    TITLE "LR_black_phrase_A04_200"
    INDEX 01 04:48:46
  TRACK 201 AUDIO
    TITLE "LR_black_phrase_A04_201"
    INDEX 01 04:51:56
  TRACK 202 AUDIO
    TITLE "LR_black_phrase_A04_202"
    INDEX 01 04:52:63
  TRACK 203 AUDIO
    TITLE "LR_black_phrase_A04_203"
    INDEX 01 04:54:01
  TRACK 204 AUDIO
    TITLE "LR_black_phrase_A04_204"
    INDEX 01 04:54:40
  TRACK 205 AUDIO
    TITLE "LR_black_phrase_A04_205"
    INDEX 01 04:57:01
  TRACK 206 AUDIO
    TITLE "LR_black_phrase_A04_206"
    INDEX 01 04:57:74
  TRACK 207 AUDIO
    TITLE "LR_black_phrase_A04_207"
    INDEX 01 05:01:01
  TRACK 208 AUDIO
    TITLE "LR_black_phrase_A04_208"
    INDEX 01 05:01:38
  TRACK 209 AUDIO
    TITLE "LR_black_phrase_A04_209"
    INDEX 01 05:03:67
  TRACK 210 AUDIO
    TITLE "LR_black_phrase_A04_210"
    INDEX 01 05:04:19
  TRACK 211 AUDIO
    TITLE "LR_black_phrase_A04_211"
    INDEX 01 05:06:45
  TRACK 212 AUDIO
    TITLE "LR_black_phrase_A04_212"
    INDEX 01 05:07:47
  TRACK 213 AUDIO
    TITLE "LR_black_phrase_A04_213"
    INDEX 01 05:09:03
  TRACK 214 AUDIO
    TITLE "LR_black_phrase_A04_214"
    INDEX 01 05:09:44
  TRACK 215 AUDIO
    TITLE "LR_black_phrase_A04_215"
    INDEX 01 05:11:17
  TRACK 216 AUDIO
    TITLE "LR_black_phrase_A04_216"
    INDEX 01 05:12:15
  TRACK 217 AUDIO
    TITLE "LR_black_phrase_A04_217"
    INDEX 01 05:15:03
  TRACK 218 AUDIO
    TITLE "LR_black_phrase_A04_218"
    INDEX 01 05:15:37
  TRACK 219 AUDIO
    TITLE "LR_black_phrase_A04_219"
    INDEX 01 05:18:15
  TRACK 220 AUDIO
    TITLE "LR_black_phrase_A04_220"
    INDEX 01 05:18:37
  TRACK 221 AUDIO
    TITLE "LR_black_phrase_A04_221"
    INDEX 01 05:21:16
  TRACK 222 AUDIO
    TITLE "LR_black_phrase_A04_222"
    INDEX 01 05:22:13
  TRACK 223 AUDIO
    TITLE "LR_black_phrase_A04_223"
    INDEX 01 05:23:34
  TRACK 224 AUDIO
    TITLE "LR_black_phrase_A04_224"
    INDEX 01 05:23:73
  TRACK 225 AUDIO
    TITLE "LR_black_phrase_A04_225"
    INDEX 01 05:25:31
  TRACK 226 AUDIO
    TITLE "LR_black_phrase_A04_226"
    INDEX 01 05:26:30
  TRACK 227 AUDIO
    TITLE "LR_black_phrase_A04_227"
    INDEX 01 05:28:49
  TRACK 228 AUDIO
    TITLE "LR_black_phrase_A04_228"
    INDEX 01 05:29:09
  TRACK 229 AUDIO
    TITLE "LR_black_phrase_A04_229"
    INDEX 01 05:31:41
  TRACK 230 AUDIO
    TITLE "LR_black_phrase_A04_230"
    INDEX 01 05:31:65
  TRACK 231 AUDIO
    TITLE "LR_black_phrase_A04_231"
    INDEX 01 05:34:22
  TRACK 232 AUDIO
    TITLE "LR_black_phrase_A04_232"
    INDEX 01 05:35:20
  TRACK 233 AUDIO
    TITLE "LR_black_phrase_A04_233"
    INDEX 01 05:36:54
  TRACK 234 AUDIO
    TITLE "LR_black_phrase_A04_234"
    INDEX 01 05:37:22
  TRACK 235 AUDIO
    TITLE "LR_black_phrase_A04_235"
    INDEX 01 05:38:59
  TRACK 236 AUDIO
    TITLE "LR_black_phrase_A04_236"
    INDEX 01 05:39:59
  TRACK 237 AUDIO
    TITLE "LR_black_phrase_A04_237"
    INDEX 01 05:42:08
  TRACK 238 AUDIO
    TITLE "LR_black_phrase_A04_238"
    INDEX 01 05:42:45
  TRACK 239 AUDIO
    TITLE "LR_black_phrase_A04_239"
    INDEX 01 05:45:47
  TRACK 240 AUDIO
    TITLE "LR_black_phrase_A04_240"
    INDEX 01 05:45:73
  TRACK 241 AUDIO
    TITLE "LR_black_phrase_A04_241"
    INDEX 01 05:49:00
  TRACK 242 AUDIO
    TITLE "LR_black_phrase_A04_242"
    INDEX 01 05:49:71
  TRACK 243 AUDIO
    TITLE "LR_black_phrase_A04_243"
    INDEX 01 05:51:17
  TRACK 244 AUDIO
    TITLE "LR_black_phrase_A04_244"
    INDEX 01 05:51:54
  TRACK 245 AUDIO
    TITLE "LR_black_phrase_A04_245"
    INDEX 01 05:54:15
  TRACK 246 AUDIO
    TITLE "LR_black_phrase_A04_246"
    INDEX 01 05:55:15
  TRACK 247 AUDIO
    TITLE "LR_black_phrase_A04_247"
    INDEX 01 05:57:70
  TRACK 248 AUDIO
    TITLE "LR_black_phrase_A04_248"
    INDEX 01 05:58:34
  TRACK 249 AUDIO
    TITLE "LR_black_phrase_A04_249"
    INDEX 01 06:00:59
  TRACK 250 AUDIO
    TITLE "LR_black_phrase_A04_250"
    INDEX 01 06:01:11
  TRACK 251 AUDIO
    TITLE "LR_black_phrase_A04_251"
    INDEX 01 06:03:36
  TRACK 252 AUDIO
    TITLE "LR_black_phrase_A04_252"
    INDEX 01 06:04:39
  TRACK 253 AUDIO
    TITLE "LR_black_phrase_A04_253"
    INDEX 01 06:05:48
  TRACK 254 AUDIO
    TITLE "LR_black_phrase_A04_254"
    INDEX 01 06:06:12
  TRACK 255 AUDIO
    TITLE "LR_black_phrase_A04_255"
    INDEX 01 06:08:29
  TRACK 256 AUDIO
    TITLE "LR_black_phrase_A04_256"
    INDEX 01 06:09:30
  TRACK 257 AUDIO
    TITLE "LR_black_phrase_A04_257"
    INDEX 01 06:11:06
  TRACK 258 AUDIO
    TITLE "LR_black_phrase_A04_258"
    INDEX 01 06:11:45
  TRACK 259 AUDIO
    TITLE "LR_black_phrase_A04_259"
    INDEX 01 06:13:30
  TRACK 260 AUDIO
    TITLE "LR_black_phrase_A04_260"
    INDEX 01 06:13:57
  TRACK 261 AUDIO
    TITLE "LR_black_phrase_A04_261"
    INDEX 01 06:15:43
  TRACK 262 AUDIO
    TITLE "LR_black_phrase_A04_262"
    INDEX 01 06:16:46
  TRACK 263 AUDIO
    TITLE "LR_black_phrase_A04_263"
    INDEX 01 06:18:04
  TRACK 264 AUDIO
    TITLE "LR_black_phrase_A04_264"
    INDEX 01 06:18:45
  TRACK 265 AUDIO
    TITLE "LR_black_phrase_A04_265"
    INDEX 01 06:20:24
  TRACK 266 AUDIO
    TITLE "LR_black_phrase_A04_266"
    INDEX 01 06:21:22
  TRACK 267 AUDIO
    TITLE "LR_black_phrase_A04_267"
    INDEX 01 06:22:68
  TRACK 268 AUDIO
    TITLE "LR_black_phrase_A04_268"
    INDEX 01 06:23:32
  TRACK 269 AUDIO
    TITLE "LR_black_phrase_A04_269"
    INDEX 01 06:25:41
  TRACK 270 AUDIO
    TITLE "LR_black_phrase_A04_270"
    INDEX 01 06:25:72
  TRACK 271 AUDIO
    TITLE "LR_black_phrase_A04_271"
    INDEX 01 06:28:06
  TRACK 272 AUDIO
    TITLE "LR_black_phrase_A04_272"
    INDEX 01 06:29:08
  TRACK 273 AUDIO
    TITLE "LR_black_phrase_A04_273"
    INDEX 01 06:30:15
  TRACK 274 AUDIO
    TITLE "LR_black_phrase_A04_274"
    INDEX 01 06:30:50
  TRACK 275 AUDIO
    TITLE "LR_black_phrase_A04_275"
    INDEX 01 06:31:57
  TRACK 276 AUDIO
    TITLE "LR_black_phrase_A04_276"
    INDEX 01 06:32:59
  TRACK 277 AUDIO
    TITLE "LR_black_phrase_A04_277"
    INDEX 01 06:35:34
  TRACK 278 AUDIO
    TITLE "LR_black_phrase_A04_278"
    INDEX 01 06:35:73
  TRACK 279 AUDIO
    TITLE "LR_black_phrase_A04_279"
    INDEX 01 06:38:69
  TRACK 280 AUDIO
    TITLE "LR_black_phrase_A04_280"
    INDEX 01 06:39:20
  TRACK 281 AUDIO
    TITLE "LR_black_phrase_A04_281"
    INDEX 01 06:42:16
  TRACK 282 AUDIO
    TITLE "LR_black_phrase_A04_282"
    INDEX 01 06:43:15
  TRACK 283 AUDIO
    TITLE "LR_black_phrase_A04_283"
    INDEX 01 06:44:29
  TRACK 284 AUDIO
    TITLE "LR_black_phrase_A04_284"
    INDEX 01 06:44:66
  TRACK 285 AUDIO
    TITLE "LR_black_phrase_A04_285"
    INDEX 01 06:46:06
  TRACK 286 AUDIO
    TITLE "LR_black_phrase_A04_286"
    INDEX 01 06:47:05
  TRACK 287 AUDIO
    TITLE "LR_black_phrase_A04_287"
    INDEX 01 06:49:24
  TRACK 288 AUDIO
    TITLE "LR_black_phrase_A04_288"
    INDEX 01 06:49:57
  TRACK 289 AUDIO
    TITLE "LR_black_phrase_A04_289"
    INDEX 01 06:51:72
  TRACK 290 AUDIO
    TITLE "LR_black_phrase_A04_290"
    INDEX 01 06:52:16
  TRACK 291 AUDIO
    TITLE "LR_black_phrase_A04_291"
    INDEX 01 06:54:31
  TRACK 292 AUDIO
    TITLE "LR_black_phrase_A04_292"
    INDEX 01 06:55:27
  TRACK 293 AUDIO
    TITLE "LR_black_phrase_A04_293"
    INDEX 01 06:56:30
  TRACK 294 AUDIO
    TITLE "LR_black_phrase_A04_294"
    INDEX 01 06:56:67
  TRACK 295 AUDIO
    TITLE "LR_black_phrase_A04_295"
    INDEX 01 06:58:21
  TRACK 296 AUDIO
    TITLE "LR_black_phrase_A04_296"
    INDEX 01 06:59:20
  TRACK 297 AUDIO
    TITLE "LR_black_phrase_A04_297"
    INDEX 01 07:01:11
  TRACK 298 AUDIO
    TITLE "LR_black_phrase_A04_298"
    INDEX 01 07:01:45
  TRACK 299 AUDIO
    TITLE "LR_black_phrase_A04_299"
    INDEX 01 07:03:22
  TRACK 300 AUDIO
    TITLE "LR_black_phrase_A04_300"
    INDEX 01 07:03:44
  TRACK 301 AUDIO
    TITLE "LR_black_phrase_A04_301"
    INDEX 01 07:05:19
